<svg id="Capa_1" enable-background="new 0 0 497 497" height="512" viewBox="0 0 497 497" width="512" xmlns="http://www.w3.org/2000/svg"><g><g><path d="m159.738 476.629c-3.336 0-6.706-.964-9.676-2.976l-44.487-30.138c-7.901-5.353-9.966-16.096-4.614-23.997 5.352-7.9 16.095-9.966 23.997-4.614l44.487 30.138c7.901 5.353 9.966 16.096 4.614 23.997-3.34 4.932-8.782 7.59-14.321 7.59z" fill="#a4e6ff"/></g><path d="m387.961 475.589c-12.332-49.192-62.847-82.193-62.847-82.193h-153.228s-50.515 33.001-62.847 82.193c-2.728 10.882 5.597 21.411 16.815 21.411h245.291c11.22 0 19.544-10.529 16.816-21.411z" fill="#ffbdd7"/><path d="m139.039 475.589c12.332-49.192 62.847-82.193 62.847-82.193h-30s-50.515 33.001-62.847 82.193c-2.728 10.882 5.597 21.411 16.815 21.411h30c-11.218 0-19.543-10.529-16.815-21.411z" fill="#ff97c0"/><circle cx="248.5" cy="208.479" fill="#c7c5cb" r="208.479"/><circle cx="248.5" cy="208.479" fill="#a4e6ff" r="139.982"/><circle cx="248.5" cy="208.479" fill="#5bd6fd" r="89.559"/><g fill="#ececec"><path d="m207.346 165.426c-41.23-60.831-33.878-121.516 41.154-121.516s110.166 45.628 65.45 92.168c-16.768 17.453-25.259 31.997-29.323 43.36z"/><path d="m306.673 195.707-52.149 58.731c7.594 9.379 15.603 24.194 21.794 47.592 16.508 62.393 73.75 56.104 112.76-7.99s-9.006-101.926-82.405-98.333z"/><path d="m206.109 189.73c-11.96 1.611-28.78.75-51.985-6.126-61.881-18.337-86.269 33.83-51.8 100.476s91.749 45.298 126.841-19.269z"/></g><path d="m161.871 185.734c-1.909 7.266-2.93 14.888-2.93 22.745 0 36.52 21.975 68 53.394 81.924 5.995-7.498 11.655-16.07 16.83-25.591l-23.056-75.082c-10.584 1.426-24.984.906-44.238-3.996z" fill="#dededc"/><path d="m306.673 195.707-52.149 58.731c6.72 8.3 13.763 20.869 19.585 39.863 36.943-11.044 63.95-45.336 63.95-85.822 0-3.965-.262-7.869-.764-11.699-9.525-1.225-19.794-1.603-30.622-1.073z" fill="#dededc"/><path d="m308.466 142.017c-15.887-14.348-36.923-23.098-59.965-23.098-21.239 0-40.77 7.436-56.139 19.835 3.904 8.759 8.913 17.713 14.985 26.671l77.282 14.012c3.592-10.046 10.658-22.586 23.837-37.42z" fill="#dededc"/><circle cx="248.5" cy="208.479" fill="#ffbdd7" r="59.559"/><circle cx="248.5" cy="208.479" fill="#a4e6ff" r="22.736"/><g><g><path d="m180.195 462.803c-4.142 0-7.5-3.358-7.5-7.5v-13.125c0-4.142 3.358-7.5 7.5-7.5s7.5 3.358 7.5 7.5v13.125c0 4.143-3.358 7.5-7.5 7.5z" fill="#423e4f"/></g><g><path d="m316.805 462.803c-4.142 0-7.5-3.358-7.5-7.5v-13.125c0-4.142 3.358-7.5 7.5-7.5s7.5 3.358 7.5 7.5v13.125c0 4.143-3.358 7.5-7.5 7.5z" fill="#423e4f"/></g><g><path d="m248.5 470.617c-9.07 0-17.694-3.928-23.663-10.777-2.721-3.123-2.396-7.86.727-10.582 3.123-2.721 7.86-2.396 10.582.727 3.119 3.579 7.622 5.631 12.354 5.631s9.235-2.053 12.354-5.632c2.721-3.123 7.458-3.447 10.582-.726 3.123 2.721 3.448 7.459.726 10.582-5.968 6.849-14.593 10.777-23.662 10.777z" fill="#423e4f"/></g></g></g></svg>